<?xml version="1.0" encoding="UTF-8"?>
<svg xmlns="http://www.w3.org/2000/svg" width="1600" height="270" version="1.1" viewBox="0 0 1600 270">
  <!-- Generator: Adobe Illustrator 28.6.0, SVG Export Plug-In . SVG Version: 1.2.0 Build 709)  -->
  <g>
    <g id="_レイヤー_1" data-name="レイヤー_1">
      <path d="M1416.567,7.279h-53.903v13.683h16.593c10.874,0,21.073,5.272,27.361,14.143l133.062,187.705c7.924,11.179-.069,26.643-13.771,26.643h-212.714v-83.932h.495v-55.437c0-12.29,4.48-23.982,11.85-33.817,5.389-7.191,8.585-16.114,8.585-25.796,0-25.501-22.101-45.841-48.194-42.909-19.483,2.189-35.345,17.792-37.825,37.241-1.575,12.346,2.081,23.808,9.042,32.523,7.488,9.375,11.031,21.304,11.031,33.303v54.893l-.53,63.067L1133.958,7.279h-74.214v13.269c7.517.447,13.546,1.384,18.08,2.82,4.531,1.441,8.015,3.929,10.451,7.465,2.431,3.54,4.09,8.351,4.976,14.43.88,6.086,1.327,13.767,1.327,23.056v133.361c0,10.399-.447,18.634-1.327,24.715-.886,6.086-2.711,10.781-5.474,14.099-2.768,3.318-6.635,5.588-11.612,6.801-4.975,1.218-11.558,1.938-19.739,2.156h-82.705c10.427-5.798,19.82-12.805,28.14-21.066,11.688-11.612,20.936-25.265,27.75-40.97,6.81-15.701,10.217-32.51,10.217-50.426,0-18.794-3.355-36.269-10.064-52.415-6.708-16.141-15.91-30.188-27.598-42.132-11.694-11.942-25.464-21.341-41.321-28.197-15.857-6.853-32.935-10.285-51.232-10.285s-35.374,3.432-51.232,10.285c-15.857,6.857-29.634,16.255-41.322,28.197-11.692,11.944-20.89,25.99-27.598,42.132-6.71,16.146-10.064,33.621-10.064,52.415,0,17.916,3.355,34.725,10.064,50.426,6.708,15.705,15.958,29.358,27.75,40.97,8.388,8.261,17.829,15.268,28.278,21.066h-108.738c-9.733-.218-17.582-1.161-23.552-2.82-5.972-1.659-10.508-4.09-13.603-7.299-3.1-3.202-5.141-7.35-6.136-12.44-.995-5.085-1.493-11.165-1.493-18.246V34.814c0-1.991.441-3.65,1.327-4.977.88-1.327,2.705-2.374,5.473-3.152,2.763-.772,6.745-1.327,11.944-1.659,5.193-.332,12.108-.498,20.734-.498h67.464l-.784-17.25h-259.754l-.784,17.25h71.445c7.299,0,13.212.166,17.748.498,4.531.332,8.013.886,10.451,1.659,2.43.777,4.032,1.825,4.809,3.152.773,1.327,1.161,2.986,1.161,4.977v173.833c0,7.081-.498,13.16-1.493,18.246-.995,5.09-3.1,9.238-6.302,12.44-3.209,3.209-7.797,5.64-13.768,7.299-5.97,1.659-13.933,2.602-23.884,2.82h-29.613v-.332c-7.522-.663-13.659-1.659-18.412-2.986-4.759-1.327-8.958-3.702-12.607-7.133-3.648-3.427-7.079-8.345-10.283-14.762-3.209-6.413-7.133-15.26-11.778-26.54L435.775,3.961h-24.549l-87.249,218.619c-1.991,4.645-4.095,8.574-6.302,11.776-2.213,3.209-4.811,5.806-7.797,7.797-2.986,1.991-6.417,3.541-10.283,4.645-3.872,1.109-8.46,1.991-13.769,2.654h-46.669c2.254-1.048,4.443-2.145,6.53-3.318,10.169-5.749,17.966-12.824,23.388-21.232,5.416-8.403,8.127-18.246,8.127-29.526,0-9.952-1.882-19.126-5.64-27.534-3.763-8.403-9.07-15.701-15.923-21.895-6.858-6.19-15.208-10.999-25.045-14.43-9.844-3.427-9.119-5.143-21.279-5.143v-1.327c37.819-10.833,44.997-29.411,44.997-55.733,0-19.905-9.013-35.216-27.036-45.947-18.029-10.724-43.738-16.089-77.13-16.089H43.654v13.269c5.972.447,10.782,1.161,14.43,2.156,3.65.995,6.522,2.877,8.626,5.64,2.1,2.768,3.484,6.526,4.147,11.278.664,4.759.995,11.005.995,18.743v153.267c0,7.743-.447,14.046-1.327,18.909-.886,4.866-2.602,8.624-5.142,11.279-2.545,2.654-6.086,4.536-10.615,5.64-4.536,1.109-10.565,1.773-18.081,1.991h-18.343L0,266.039h1600L1416.567,7.279ZM829.244,138.11c0-17.969,1.852-34.152,5.56-48.551,3.703-14.395,9.054-26.723,16.042-36.976,6.989-10.249,15.406-18.083,25.255-23.499,9.847-5.411,21.014-8.122,33.513-8.122,12.279,0,23.399,2.711,33.354,8.122,9.953,5.416,18.424,13.249,25.413,23.499,6.988,10.253,12.334,22.581,16.042,36.976,3.703,14.4,5.56,30.582,5.56,48.551,0,17.053-1.856,32.43-5.56,46.134-3.708,13.71-9.054,25.345-16.042,34.902-6.989,9.563-15.461,16.934-25.413,22.117-9.956,5.184-21.075,7.776-33.354,7.776-12.499,0-23.666-2.592-33.513-7.776-9.848-5.182-18.265-12.553-25.255-22.117-6.988-9.557-12.338-21.192-16.042-34.902-3.708-13.704-5.56-29.081-5.56-46.134ZM422.969,65.002h1.327l38.15,100.519h-78.955l39.477-100.519ZM120.618,22.374c0-3.758,1.991-5.64,5.972-5.64h23.554c17.691,0,29.516,4.898,38.482,10.781,15.111,9.916,11.942,29.64,11.942,45.781,0,15.483-5.308,26.87-15.923,34.169-5.09,3.54-11.28,6.252-18.578,8.128-7.299,1.882-15.923,2.818-25.876,2.818h-19.573V22.374ZM131.235,246.15c-7.081-5.748-10.617-15.478-10.617-29.193v-78.641h15.923c15.261,0,28.142.995,38.648,2.986,10.503,1.991,19.075,5.308,25.711,9.953,12.824,9.07,19.241,23.445,19.241,43.127,0,28.948-8.685,46.859-25.999,55.069h-57.607c-1.975-.975-3.771-2.058-5.301-3.302ZM367.734,246.798c-4.977-1.768-7.465-5.972-7.465-12.607,0-9.065,5.195-25.32,15.592-48.765h93.883l7.631,19.905c2.654,7.081,4.754,13.051,6.304,17.914,1.545,4.867,2.322,8.849,2.322,11.942,0,5.308-2.322,8.849-6.967,10.617-4.645,1.773-12.274,2.877-22.891,3.318l-.327.332h-58.922c-9.953,0-24.185-.882-29.16-2.654ZM1264.468,51.604c0-14.638,11.866-26.505,26.504-26.505s26.505,11.867,26.505,26.505-11.866,26.505-26.505,26.505-26.504-11.867-26.504-26.505ZM1173.297,249.452c-7.297-.218-13.217-.882-17.748-1.991-4.536-1.104-8.075-3.427-10.615-6.967-2.545-3.534-4.204-8.511-4.976-14.928-.777-6.413-1.161-15.146-1.161-26.208V56.709h1.327l118.428,192.743h-85.255Z"/>
    </g>
  </g>
</svg>