<?xml version="1.0" encoding="UTF-8"?>
<svg id="_レイヤー_1" data-name="レイヤー 1" xmlns="http://www.w3.org/2000/svg" width="120" height="30" version="1.1" viewBox="0 0 120 30">
  <defs>
    <style>
      .cls-1 {
        fill: #231815;
      }

      .cls-1, .cls-2, .cls-3 {
        stroke-width: 0px;
      }

      .cls-2 {
        fill: none;
      }

      .cls-3 {
        fill: #fff;
      }
    </style>
  </defs>
  <g>
    <g>
      <path class="cls-1" d="M41.72,22.51v-.8c.45-.01.82-.05,1.09-.12.27-.07.49-.18.64-.34.15-.16.26-.39.31-.68.05-.29.08-.67.08-1.14v-9.25c0-.47-.02-.84-.06-1.13-.04-.29-.12-.51-.25-.68-.13-.17-.3-.28-.52-.34-.22-.06-.51-.1-.87-.13v-.8h6.42c2.01,0,3.57.32,4.65.97,1.09.65,1.63,1.57,1.63,2.77,0,1.59-.43,2.71-2.71,3.36v.08c.73,0,.69.1,1.28.31.59.21,1.1.5,1.51.87.41.37.73.81.96,1.32.23.51.34,1.06.34,1.66,0,.68-.16,1.27-.49,1.78-.33.51-.8.93-1.41,1.28-1.19.67-2.82,1-4.9,1h-7.71ZM47.97,13.8c.6,0,1.12-.06,1.56-.17.44-.11.81-.28,1.12-.49.64-.44.96-1.13.96-2.06s.19-2.16-.72-2.76c-.54-.35-1.25-.65-2.32-.65h-1.42c-.24,0-.36.11-.36.34v5.79h1.18ZM49.57,22.03c2.15,0,3.22-1.14,3.22-3.64,0-1.19-.39-2.05-1.16-2.6-.4-.28-.92-.48-1.55-.6-.63-.12-1.41-.18-2.33-.18h-.96v4.74c0,.83.21,1.41.64,1.76.43.35,1.14.52,2.14.52Z"/>
      <path class="cls-1" d="M67.85,17.84h-5.66c-.63,1.41-.94,2.4-.94,2.94,0,.4.15.65.45.76.3.11,1.16.16,1.76.16l-.81.8h-5.89v-.8c.32-.04.6-.09.83-.16.23-.07.44-.16.62-.28s.34-.28.47-.47c.13-.19.26-.43.38-.71l5.26-13.19h1.48l4.78,11.69c.28.68.52,1.21.71,1.6.19.39.4.68.62.89.22.21.47.35.76.43.29.08.66.14,1.11.18v.82h-7.57l.81-.82c.64-.03,1.1-.09,1.38-.2.28-.11.42-.32.42-.64,0-.19-.05-.43-.14-.72-.09-.29-.22-.65-.38-1.08l-.46-1.2ZM62.65,16.64h4.76l-2.3-6.06h-.08l-2.38,6.06Z"/>
      <path class="cls-1" d="M83.64,8.14c-.52,0-.94.01-1.25.03-.31.02-.55.05-.72.1-.17.05-.28.11-.33.19-.05.08-.08.18-.08.3v10.49c0,.43.03.79.09,1.1.06.31.18.56.37.75.19.19.46.34.82.44.36.1.83.16,1.42.17v.8h-8.39v-.8c.6-.01,1.08-.07,1.44-.17.36-.1.64-.25.83-.44s.32-.44.38-.75c.06-.31.09-.67.09-1.1v-10.49c0-.12-.02-.22-.07-.3-.05-.08-.14-.14-.29-.19-.15-.05-.36-.08-.63-.1-.27-.02-.63-.03-1.07-.03-.48,0-4.31,0-4.31,0l.05-1.04h15.67l.05,1.04s-3.54,0-4.07,0Z"/>
      <path class="cls-1" d="M94.39,6.89c1.1,0,2.13.21,3.09.62.96.41,1.79.98,2.49,1.7.71.72,1.26,1.57,1.66,2.54.4.97.61,2.03.61,3.16s-.21,2.1-.62,3.04c-.41.95-.97,1.77-1.67,2.47-.71.7-1.54,1.25-2.49,1.66-.96.41-1.98.61-3.07.61s-2.12-.2-3.07-.61c-.96-.41-1.79-.96-2.5-1.66-.71-.7-1.27-1.52-1.67-2.47-.4-.95-.61-1.96-.61-3.04,0-1.13.2-2.19.61-3.16.4-.97.96-1.82,1.66-2.54.71-.72,1.54-1.29,2.49-1.7.96-.41,1.99-.62,3.09-.62ZM94.39,21.68c.74,0,1.41-.16,2.01-.47.6-.31,1.11-.76,1.53-1.33.42-.58.74-1.28.97-2.11.22-.83.34-1.75.34-2.78,0-1.08-.11-2.06-.34-2.93-.22-.87-.55-1.61-.97-2.23-.42-.62-.93-1.09-1.53-1.42-.6-.33-1.27-.49-2.01-.49s-1.43.16-2.02.49c-.59.33-1.1.8-1.52,1.42-.42.62-.74,1.36-.97,2.23-.22.87-.34,1.85-.34,2.93s.11,1.96.34,2.78c.22.83.55,1.53.97,2.11.42.58.93,1.02,1.52,1.33.59.31,1.27.47,2.02.47Z"/>
      <path class="cls-1" d="M120,9.7c0-1.54-1.33-2.77-2.91-2.59-1.18.13-2.13,1.07-2.28,2.25-.1.74.13,1.44.55,1.96.45.57.67,1.29.67,2.01v3.31l-.03,3.8-8.07-13.35h-4.48v.8c.45.03.82.08,1.09.17.27.09.48.24.63.45.15.21.25.5.3.87.05.37.08.83.08,1.39v8.05c0,.63-.03,1.12-.08,1.49-.05.37-.16.65-.33.85-.17.2-.4.34-.7.41-.3.07-.7.12-1.19.13v.8h7.05v-.8c-.44-.01-.8-.05-1.07-.12-.27-.07-.49-.21-.64-.42-.15-.21-.25-.51-.3-.9-.05-.39-.07-.91-.07-1.58v-8.61h.08l7.76,12.63h2.68v-6.06h.03v-3.34c0-.74.27-1.45.71-2.04.33-.43.52-.97.52-1.56Z"/>
      <circle class="cls-3" cx="117.4" cy="9.77" r="1.6"/>
    </g>
    <path class="cls-1" d="M13.31.93h-5.86v1.49h1.8c1.18,0,2.29.57,2.98,1.54l14.47,20.42c.86,1.22,0,2.9-1.5,2.9H2l-2,1.8h33.26L13.31.93Z"/>
  </g>
  <rect class="cls-2" width="120" height="30"/>
</svg>