<?xml version="1.0" encoding="UTF-8"?>
<svg id="_レイヤー_1" data-name="レイヤー 1" xmlns="http://www.w3.org/2000/svg" width="130" height="160" version="1.1" viewBox="0 0 130 160">
  <defs>
    <style>
      .cls-1 {
        fill: #231815;
      }

      .cls-1, .cls-2, .cls-3 {
        stroke-width: 0px;
      }

      .cls-2 {
        fill: none;
      }

      .cls-3 {
        fill: #fff;
      }
    </style>
  </defs>
  <g>
    <g>
      <path class="cls-1" d="M1.36,156.06v-1.32c.75-.02,1.34-.09,1.79-.2.45-.11.8-.3,1.05-.56.25-.26.42-.64.51-1.12.09-.48.13-1.11.13-1.87v-15.2c0-.77-.03-1.39-.1-1.86-.07-.47-.2-.84-.41-1.12-.21-.27-.49-.46-.86-.56-.36-.1-.84-.17-1.43-.21v-1.32h10.56c3.31,0,5.86.53,7.65,1.6,1.79,1.06,2.68,2.58,2.68,4.56,0,2.61-.71,4.45-4.46,5.53v.13c1.21,0,1.13.17,2.11.51.98.34,1.8.82,2.48,1.43.68.61,1.21,1.34,1.58,2.17.37.83.56,1.74.56,2.73,0,1.12-.27,2.09-.81,2.93-.54.83-1.31,1.54-2.32,2.11-1.95,1.1-4.64,1.64-8.06,1.64H1.36ZM11.63,141.75c.99,0,1.84-.09,2.57-.28.72-.19,1.34-.45,1.84-.81,1.05-.72,1.58-1.85,1.58-3.39s.31-3.56-1.18-4.54c-.89-.58-2.06-1.07-3.82-1.07h-2.34c-.39,0-.59.19-.59.56v9.52h1.94ZM14.26,155.27c3.53,0,5.3-1.87,5.3-5.99,0-1.95-.64-3.38-1.91-4.28-.66-.46-1.51-.79-2.55-.99-1.04-.2-2.32-.3-3.83-.3h-1.58v7.8c0,1.36.35,2.32,1.05,2.89.7.57,1.87.86,3.52.86Z"/>
      <path class="cls-1" d="M44.3,148.4h-9.31c-1.03,2.32-1.55,3.94-1.55,4.83,0,.66.25,1.07.74,1.25.49.18,1.9.26,2.89.26l-1.33,1.32h-9.68v-1.32c.53-.07.98-.15,1.37-.26.38-.11.72-.26,1.02-.46s.55-.45.77-.77c.22-.32.43-.71.62-1.17l8.65-21.68h2.43l7.86,19.21c.46,1.12.85,2,1.17,2.63.32.64.66,1.12,1.02,1.46.36.34.78.58,1.25.71.47.13,1.08.23,1.83.3v1.35h-12.43l1.33-1.35c1.05-.04,1.81-.15,2.27-.33.46-.18.69-.53.69-1.05,0-.31-.08-.7-.23-1.18-.15-.48-.36-1.07-.62-1.78l-.76-1.97ZM35.75,146.43h7.83l-3.78-9.97h-.13l-3.91,9.97Z"/>
      <path class="cls-1" d="M70.25,132.45c-.86,0-1.54.02-2.06.05-.52.03-.91.09-1.18.16-.27.08-.46.18-.54.31-.09.13-.13.3-.13.49v17.23c0,.7.05,1.3.15,1.81.1.5.3.92.61,1.23.31.32.76.56,1.35.72.59.16,1.37.26,2.34.28v1.32h-13.78v-1.32c.99-.02,1.78-.12,2.37-.28.59-.16,1.05-.41,1.37-.72s.53-.73.62-1.23c.1-.5.15-1.11.15-1.81v-17.23c0-.2-.04-.36-.12-.49-.08-.13-.24-.24-.48-.31-.24-.08-.59-.13-1.04-.16-.45-.03-1.04-.05-1.76-.05-.79,0-7.08,0-7.08,0l.08-1.71h25.75l.08,1.71s-5.81,0-6.69,0Z"/>
      <path class="cls-1" d="M87.91,130.41c1.81,0,3.51.34,5.08,1.02,1.57.68,2.94,1.61,4.1,2.8,1.16,1.18,2.07,2.58,2.74,4.18.67,1.6,1,3.33,1,5.2s-.34,3.44-1.01,5c-.68,1.56-1.59,2.91-2.75,4.06-1.16,1.15-2.52,2.06-4.1,2.73-1.57.67-3.26,1-5.05,1s-3.48-.33-5.05-1c-1.57-.67-2.94-1.58-4.11-2.73-1.17-1.15-2.09-2.5-2.75-4.06-.67-1.56-1-3.22-1-5,0-1.86.33-3.6,1-5.2.67-1.6,1.58-2.99,2.74-4.18,1.16-1.18,2.52-2.12,4.1-2.8,1.57-.68,3.27-1.02,5.08-1.02ZM87.91,154.71c1.22,0,2.32-.26,3.31-.77.99-.51,1.83-1.24,2.52-2.19.69-.95,1.22-2.1,1.59-3.46.37-1.36.55-2.88.55-4.57,0-1.78-.18-3.39-.55-4.81-.37-1.43-.9-2.65-1.59-3.67-.69-1.02-1.53-1.79-2.52-2.33-.99-.54-2.09-.81-3.31-.81s-2.35.27-3.32.81c-.98.54-1.81,1.31-2.5,2.33-.69,1.02-1.22,2.24-1.59,3.67-.37,1.43-.55,3.03-.55,4.81s.18,3.22.55,4.57c.37,1.36.9,2.51,1.59,3.46.69.95,1.53,1.68,2.5,2.19.98.51,2.08.77,3.32.77Z"/>
      <path class="cls-1" d="M130,135.02c0-2.53-2.19-4.54-4.78-4.25-1.93.22-3.5,1.76-3.75,3.69-.16,1.22.21,2.36.9,3.22.74.93,1.09,2.11,1.09,3.3v5.44l-.05,6.25-13.26-21.94h-7.36v1.32c.75.04,1.34.14,1.79.28.45.14.79.39,1.04.74.24.35.41.83.49,1.43.09.6.13,1.36.13,2.29v13.22c0,1.03-.04,1.85-.13,2.45-.09.6-.27,1.07-.54,1.4-.27.33-.66.55-1.15.67-.49.12-1.15.19-1.96.21v1.32h11.59v-1.32c-.72-.02-1.31-.09-1.76-.2-.45-.11-.8-.34-1.05-.69-.25-.35-.42-.84-.49-1.48-.08-.64-.12-1.5-.12-2.6v-14.14h.13l12.75,20.75h4.41v-9.97h.05v-5.5c0-1.22.44-2.38,1.17-3.35.53-.71.85-1.6.85-2.56Z"/>
      <circle class="cls-3" cx="125.72" cy="135.13" r="2.63"/>
    </g>
    <path class="cls-1" d="M51.99,3.61h-22.91v5.81h7.05c4.62,0,8.95,2.24,11.63,6.01l56.54,79.77c3.37,4.75-.03,11.32-5.85,11.32H7.79l-7.79,7.05h129.94L51.99,3.61Z"/>
  </g>
  <rect class="cls-2" width="130" height="160"/>
</svg>